<?xml version="1.0" encoding="UTF-8" standalone="no"?>
<!-- Created with Inkscape (http://www.inkscape.org/) -->

<svg
   width="295.21591mm"
   height="203.26862mm"
   viewBox="0 0 295.21591 203.26862"
   version="1.1"
   id="svg5"
   inkscape:version="1.1.1 (c3084ef, 2021-09-22)"
   sodipodi:docname="resume2_1.svg"
   xmlns:inkscape="http://www.inkscape.org/namespaces/inkscape"
   xmlns:sodipodi="http://sodipodi.sourceforge.net/DTD/sodipodi-0.dtd"
   xmlns="http://www.w3.org/2000/svg"
   xmlns:svg="http://www.w3.org/2000/svg">
  <sodipodi:namedview
     id="namedview7"
     pagecolor="#ffffff"
     bordercolor="#666666"
     borderopacity="1.0"
     inkscape:pageshadow="2"
     inkscape:pageopacity="0.0"
     inkscape:pagecheckerboard="0"
     inkscape:document-units="mm"
     showgrid="false"
     fit-margin-top="0"
     fit-margin-left="0"
     fit-margin-right="0"
     fit-margin-bottom="0"
     inkscape:zoom="0.70575565"
     inkscape:cx="549.76535"
     inkscape:cy="580.93761"
     inkscape:window-width="1440"
     inkscape:window-height="900"
     inkscape:window-x="0"
     inkscape:window-y="0"
     inkscape:window-maximized="0"
     inkscape:current-layer="layer1"
     showborder="false" />
  <defs
     id="defs2">
    <rect
       x="361.44711"
       y="79.584685"
       width="184.03958"
       height="114.40298"
       id="rect1901" />
    <rect
       x="537.19662"
       y="97.822841"
       width="142.58923"
       height="130.98313"
       id="rect28232" />
    <rect
       x="89.106567"
       y="280.04922"
       width="253.28848"
       height="56.226147"
       id="rect9864" />
    <rect
       x="253.4416"
       y="265.22958"
       width="979.5813"
       height="509.24081"
       id="rect13154" />
    <rect
       x="281.73276"
       y="266.40839"
       width="315.91791"
       height="76.62188"
       id="rect7642" />
    <rect
       x="361.44711"
       y="79.584685"
       width="184.03958"
       height="114.40298"
       id="rect13897" />
    <rect
       x="361.44711"
       y="79.584685"
       width="184.03958"
       height="114.40298"
       id="rect13905" />
    <rect
       x="361.44711"
       y="79.584685"
       width="184.03958"
       height="114.40298"
       id="rect13913" />
    <rect
       x="361.44711"
       y="79.584685"
       width="184.03958"
       height="114.40298"
       id="rect13921" />
  </defs>
  <g
     inkscape:label="Livello 1"
     inkscape:groupmode="layer"
     id="layer1"
     transform="translate(-19.14378,-24.415142)">
    <rect
       style="fill:#f8f9fa;fill-opacity:1;fill-rule:evenodd;stroke-width:0.413286"
       id="rect31"
       width="300"
       height="203.26862"
       x="21.219025"
       y="31.159689" />
    <circle
       style="fill:#0091ad;fill-opacity:1;stroke-width:0.321421"
       id="path1298"
       cx="168.46718"
       cy="191.91515"
       r="7.5" />
    <text
       xml:space="preserve"
       transform="scale(0.26458333)"
       id="text13152"
       style="font-style:normal;font-variant:normal;font-weight:normal;font-stretch:normal;font-size:40px;line-height:1.25;font-family:poppins;-inkscape-font-specification:poppins;white-space:pre;shape-inside:url(#rect13154);fill:#000000;fill-opacity:1;stroke:none"><tspan
         x="253.44141"
         y="300.23047"
         id="tspan365"><tspan
           style="font-weight:bold;font-family:Poppins;-inkscape-font-specification:'Poppins Bold';fill:#723c70"
           id="tspan363">
</tspan></tspan><tspan
         x="253.44141"
         y="350.23047"
         id="tspan371"><tspan
           style="font-weight:bold;font-family:Poppins;-inkscape-font-specification:'Poppins Bold';fill:#723c70"
           id="tspan367">Analyst</tspan><tspan
           style="font-family:Poppins;-inkscape-font-specification:Poppins"
           id="tspan369">
</tspan></tspan><tspan
         x="253.44141"
         y="400.23047"
         id="tspan375"><tspan
           style="font-weight:600;font-size:26.6667px;-inkscape-font-specification:'poppins Semi-Bold'"
           id="tspan373">Accenture - Milan  (IT)
</tspan></tspan><tspan
         x="253.44141"
         y="450.23047"
         id="tspan379"><tspan
           style="font-size:18.6667px"
           id="tspan377">- Definition of business requirements in collaboration with the client
</tspan></tspan><tspan
         x="253.44141"
         y="500.23047"
         id="tspan383"><tspan
           style="font-size:18.6667px"
           id="tspan381">- Translation of requirements into functional designs
</tspan></tspan><tspan
         x="253.44141"
         y="550.23047"
         id="tspan387"><tspan
           style="font-size:18.6667px"
           id="tspan385">- Functional/Unit Testing of developed solutions
</tspan></tspan><tspan
         x="253.44141"
         y="600.23047"
         id="tspan391"><tspan
           style="font-size:18.6667px"
           id="tspan389">- Coordination of developer's work using AGILE methodology
</tspan></tspan><tspan
         x="253.44141"
         y="650.23047"
         id="tspan393">
</tspan></text>
    <rect
       style="fill:#0091ad;fill-opacity:1;stroke-width:0.472849"
       id="rect79763"
       width="5"
       height="300"
       x="189.41515"
       y="-321.21902"
       transform="rotate(90)" />
    <text
       xml:space="preserve"
       transform="matrix(0.26458333,0,0,0.26458333,116.36167,132.47755)"
       id="text9862"
       style="font-size:24px;line-height:1.25;font-family:Avenir;-inkscape-font-specification:Avenir;white-space:pre;shape-inside:url(#rect9864)"><tspan
         x="89.107422"
         y="301.16204"
         id="tspan397"><tspan
           style="font-weight:600;font-family:Poppins;-inkscape-font-specification:'Poppins Semi-Bold'"
           id="tspan395">06/2018 - 02/2018</tspan></tspan></text>
    <ellipse
       style="fill:#f8f9fa;stroke-width:0.264583"
       id="path26684"
       cx="212.38361"
       cy="83.417999"
       rx="8.993"
       ry="8.5543175" />
    <circle
       style="fill:#723c70;fill-opacity:1;stroke-width:0.183588;stroke-miterlimit:4;stroke-dasharray:none"
       id="path26820"
       cx="262.93512"
       cy="56.1824"
       r="13.855742" />
    <text
       xml:space="preserve"
       transform="matrix(0.39622702,0,0,0.39622702,110.0534,20.727461)"
       id="text1899"
       style="font-size:18.6667px;line-height:1.25;font-family:Avenir;-inkscape-font-specification:Avenir;white-space:pre;shape-inside:url(#rect1901)"><tspan
         x="361.44727"
         y="96.005398"
         id="tspan401"><tspan
           style="font-family:Poppins;-inkscape-font-specification:Poppins;fill:#ffffff"
           id="tspan399">AGILE</tspan></tspan></text>
    <g
       id="g18106"
       transform="matrix(0.34029625,0,0,0.34029625,163.82583,92.200167)">
      <polygon
         class="st0"
         points="95.1,0 111.2,6.5 111.2,10.5 95.1,17 95.1,12 104.5,8.5 95.1,4.9 "
         id="polygon18102" />
      <path
         d="M 6.2,43 C 2.8,43 0,41.3 0,37.5 v -0.2 c 0,-4.6 4,-6.2 8.9,-6.2 h 2.3 v -0.9 c 0,-1.9 -0.8,-3 -2.8,-3 -1.8,0 -2.7,1 -2.8,2.4 h -5 c 0.4,-4.2 3.7,-6.2 8.1,-6.2 4.5,0 7.8,1.9 7.8,6.6 V 42.6 H 11.4 V 40.4 C 10.4,41.8 8.7,43 6.2,43 Z m 5,-6.6 V 34.6 H 9.1 c -2.6,0 -3.9,0.7 -3.9,2.4 v 0.2 c 0,1.3 0.8,2.2 2.6,2.2 1.8,-0.1 3.4,-1.1 3.4,-3 z M 28.4,43 c -5.2,0 -9,-3.2 -9,-9.6 v -0.3 c 0,-6.4 4,-9.8 9,-9.8 4.3,0 7.8,2.2 8.2,7.1 h -5 c -0.3,-1.8 -1.3,-3 -3.1,-3 -2.2,0 -3.8,1.8 -3.8,5.5 v 0.6 c 0,3.8 1.4,5.5 3.8,5.5 1.8,0 3.1,-1.3 3.4,-3.4 h 4.8 C 36.4,40 33.5,43 28.4,43 Z M 48,43 c -5.2,0 -9,-3.2 -9,-9.6 v -0.3 c 0,-6.4 4,-9.8 9,-9.8 4.3,0 7.8,2.2 8.2,7.1 h -5 c -0.3,-1.8 -1.3,-3 -3.1,-3 -2.2,0 -3.8,1.8 -3.8,5.5 v 0.6 c 0,3.8 1.4,5.5 3.8,5.5 1.8,0 3.1,-1.3 3.4,-3.4 h 4.8 C 56,40 53.1,43 48,43 Z m 19.7,0 c -5.4,0 -9.1,-3.2 -9.1,-9.5 v -0.4 c 0,-6.3 3.9,-9.8 9,-9.8 4.7,0 8.6,2.6 8.6,8.9 v 2.3 H 63.9 c 0.2,3.4 1.7,4.7 3.9,4.7 2,0 3.1,-1.1 3.5,-2.4 h 4.9 C 75.6,40.3 72.6,43 67.7,43 Z M 64,31 h 7 c -0.1,-2.8 -1.4,-4 -3.5,-4 -1.6,0.1 -3.1,1 -3.5,4 z m 15.4,-7.2 h 5.3 v 2.8 c 0.9,-1.8 2.8,-3.2 5.7,-3.2 3.4,0 5.7,2.1 5.7,6.6 V 42.6 H 90.8 V 30.8 c 0,-2.2 -0.9,-3.2 -2.8,-3.2 -1.8,0 -3.3,1.1 -3.3,3.5 v 11.5 h -5.3 z m 26.4,-5.7 v 5.7 h 3.6 v 3.9 h -3.6 v 8.9 c 0,1.4 0.6,2.1 1.9,2.1 0.8,0 1.3,-0.1 1.8,-0.3 v 4.1 c -0.6,0.2 -1.7,0.4 -3,0.4 -4.1,0 -6,-1.9 -6,-5.7 v -9.5 h -2.2 v -3.9 h 2.2 v -3.5 z m 23.4,24.5 H 124 v -2.8 c -0.9,1.8 -2.7,3.2 -5.5,3.2 -3.4,0 -5.9,-2.1 -5.9,-6.5 V 23.8 h 5.3 v 12 c 0,2.2 0.9,3.2 2.7,3.2 1.8,0 3.3,-1.2 3.3,-3.5 V 23.8 h 5.3 z m 3.9,-18.8 h 5.3 v 3.5 c 1.1,-2.5 2.9,-3.7 5.7,-3.7 v 5.2 c -3.6,0 -5.7,1.1 -5.7,4.2 v 9.7 h -5.3 z M 154.8,43 c -5.4,0 -9.1,-3.2 -9.1,-9.5 v -0.4 c 0,-6.3 3.9,-9.8 9,-9.8 4.7,0 8.6,2.6 8.6,8.9 v 2.3 h -12.2 c 0.2,3.4 1.7,4.7 3.9,4.7 2,0 3.1,-1.1 3.5,-2.4 h 4.9 c -0.8,3.5 -3.7,6.2 -8.6,6.2 z M 151,31 h 7.1 c -0.1,-2.8 -1.4,-4 -3.5,-4 -1.6,0.1 -3.1,1 -3.6,4 z"
         id="path18104" />
    </g>
  </g>
  <style
     type="text/css"
     id="style18100">
	.st0{fill:#A100FF;}
</style>
</svg>
